<svg id="visual" viewBox="0 0 900 600" width="900" height="600" xmlns="http://www.w3.org/2000/svg" xmlns:xlink="http://www.w3.org/1999/xlink" version="1.1"><rect width="900" height="600" fill="#f5f7fb"></rect><g><g transform="translate(809 301)"><path d="M80.5 -27.3C88.1 -2.9 66.7 29.8 37.8 50.4C9 70.9 -27.4 79.4 -49.4 64.3C-71.4 49.2 -78.9 10.6 -68.3 -18.1C-57.6 -46.8 -28.8 -65.4 3.8 -66.7C36.5 -67.9 73 -51.7 80.5 -27.3Z" stroke="#dc1818" fill="none" stroke-width="15"></path></g><g transform="translate(480 390)"><path d="M65.5 -22.3C74.9 7.6 65.6 42.6 42.3 59.9C18.9 77.3 -18.4 77 -44.1 58.8C-69.9 40.6 -83.9 4.4 -74.6 -25.4C-65.3 -55.2 -32.7 -78.7 -2.3 -77.9C28.1 -77.2 56.1 -52.3 65.5 -22.3Z" stroke="#dc1818" fill="none" stroke-width="15"></path></g><g transform="translate(126 476)"><path d="M69.9 -25.5C77.2 -0.1 60.7 30.3 33.5 51.3C6.4 72.2 -31.3 83.6 -57.5 67.3C-83.7 51.1 -98.5 7.2 -86.9 -24C-75.4 -55.1 -37.7 -73.4 -3.2 -72.3C31.3 -71.3 62.5 -50.9 69.9 -25.5Z" stroke="#dc1818" fill="none" stroke-width="15"></path></g><g transform="translate(80 97)"><path d="M31.9 -8.8C37.3 6.2 34.9 25.4 24.5 32.7C14.1 40 -4.1 35.3 -15.2 26.1C-26.3 16.8 -30.3 2.8 -26.6 -9.9C-22.9 -22.6 -11.4 -34 0.9 -34.3C13.3 -34.6 26.5 -23.8 31.9 -8.8Z" stroke="#dc1818" fill="none" stroke-width="15"></path></g><g transform="translate(523 32)"><path d="M26.3 -9.6C29.9 2.7 25.9 16.4 16.8 23.1C7.6 29.8 -6.7 29.4 -16.8 22.3C-26.8 15.2 -32.6 1.3 -29.1 -10.8C-25.6 -23 -12.8 -33.5 -0.7 -33.2C11.3 -33 22.6 -22 26.3 -9.6Z" stroke="#dc1818" fill="none" stroke-width="15"></path></g><g transform="translate(861 26)"><path d="M62.9 -22.4C69.6 -0.1 54.7 27.3 33.4 41.9C12 56.4 -15.7 58.1 -34.6 45C-53.5 31.9 -63.5 4 -56.3 -19.2C-49 -42.4 -24.5 -60.9 1.8 -61.4C28.2 -62 56.3 -44.7 62.9 -22.4Z" stroke="#dc1818" fill="none" stroke-width="15"></path></g><g transform="translate(770 576)"><path d="M57.3 -21.6C65.1 5.3 55.9 34.7 35.6 49.5C15.4 64.3 -15.8 64.5 -35.5 49.9C-55.3 35.3 -63.6 6 -55.7 -21C-47.9 -47.9 -24 -72.5 0.4 -72.6C24.8 -72.8 49.5 -48.4 57.3 -21.6Z" stroke="#dc1818" fill="none" stroke-width="15"></path></g><g transform="translate(295 216)"><path d="M59.1 -21.6C68.4 9.6 62.3 43.4 41.2 59.3C20.1 75.3 -15.9 73.4 -40.2 55.6C-64.5 37.9 -77.1 4.4 -68.5 -25.8C-59.8 -56 -29.9 -82.9 -2.5 -82.1C24.9 -81.3 49.7 -52.8 59.1 -21.6Z" stroke="#dc1818" fill="none" stroke-width="15"></path></g></g></svg>