<svg xmlns="http://www.w3.org/2000/svg" version="1.1" xmlns:xlink="http://www.w3.org/1999/xlink" xmlns:svgjs="http://svgjs.dev/svgjs" width="1440" height="560" preserveAspectRatio="none" viewBox="0 0 1440 560"><g mask="url(&quot;#SvgjsMask1014&quot;)" fill="none"><path d="M729.63-96.38C615.37-50.57 658.78 299.9 437.75 300.19 216.71 300.48 15.1 32.52-146.02 25.79" stroke="rgba(123, 123, 123, 1)" stroke-width="2"></path><path d="M661.78-101.8C550.84-62.6 590.87 266.28 368.92 266.61 146.97 266.94-58.55 30.45-216.8 25.81" stroke="rgba(123, 123, 123, 1)" stroke-width="2"></path><path d="M1004.46-48.05C820.47-1.73 762.24 490.62 478.18 498.76 194.11 506.9 86.7 381.87-48.11 381.16" stroke="rgba(123, 123, 123, 1)" stroke-width="2"></path><path d="M848.8-95.78C675.43-41.11 628.8 452.91 377.98 458.37 127.15 463.83 35.67 255.69-92.85 251.17" stroke="rgba(123, 123, 123, 1)" stroke-width="2"></path><path d="M1023.17-66.03C842.22-56.33 722.35 259.92 379.55 267.34 36.74 274.76-99.41 406.53-264.08 407.34" stroke="rgba(123, 123, 123, 1)" stroke-width="2"></path></g><defs><mask id="SvgjsMask1014"><rect width="1440" height="560" fill="#ffffff"></rect></mask></defs></svg>