<svg xmlns="http://www.w3.org/2000/svg" version="1.1" xmlns:xlink="http://www.w3.org/1999/xlink" xmlns:svgjs="http://svgjs.dev/svgjs" width="1440" height="560" preserveAspectRatio="none" viewBox="0 0 1440 560"><g mask="url(&quot;#SvgjsMask1015&quot;)" fill="none"><path d="M1664.14 470.87C1481.87 470.29 1329.7 344.99 947.53 336.47 565.37 327.95 435.48-48.8 230.93-61.89" stroke="rgba(123, 123, 123, 1)" stroke-width="2"></path><path d="M1522.67 102.28C1350.5 103.32 1189.65 259.35 852.05 259.08 514.45 258.81 366.36-46.98 181.43-54.61" stroke="rgba(123, 123, 123, 1)" stroke-width="2"></path><path d="M1610.93 112.24C1504.63 113.24 1408.33 224.63 1200.72 224.24 993.11 223.85 909.1-7.82 790.51-16.49" stroke="rgba(123, 123, 123, 1)" stroke-width="2"></path><path d="M1576.73 260.26C1386.36 263.18 1132.47 497.54 852.41 495.46 572.35 493.38 633.98 47.93 490.25-12.73" stroke="rgba(123, 123, 123, 1)" stroke-width="2"></path><path d="M1466.21 262.45C1359.09 262.21 1254.85 192.45 1043.49 192.45 832.14 192.45 844.07 266.38 620.78 262.45 397.49 258.52 334.7-73 198.06-96.02" stroke="rgba(123, 123, 123, 1)" stroke-width="2"></path></g><defs><mask id="SvgjsMask1015"><rect width="1440" height="560" fill="#ffffff"></rect></mask></defs></svg>