<svg xmlns="http://www.w3.org/2000/svg" version="1.1" xmlns:xlink="http://www.w3.org/1999/xlink" xmlns:svgjs="http://svgjs.dev/svgjs" width="1440" height="560" preserveAspectRatio="none" viewBox="0 0 1440 560"><g mask="url(&quot;#SvgjsMask1017&quot;)" fill="none"><path d="M382.72 661.79C577.75 639.7 698.95 209.41 1023.91 208.69 1348.87 207.97 1493.92 445.56 1665.1 449.49" stroke="rgba(123, 123, 123, 1)" stroke-width="2"></path><path d="M494.41 567.06C647.89 511.5 667.62 67.49 897.07 53.11 1126.51 38.73 1098.4 123.11 1299.72 123.11 1501.05 123.11 1600.21 53.37 1702.38 53.11" stroke="rgba(123, 123, 123, 1)" stroke-width="2"></path><path d="M316.68 661C464.2 635.44 530.09 275.27 770.83 270.62 1011.58 265.97 997.91 340.62 1224.99 340.62 1452.06 340.62 1564.26 270.83 1679.14 270.62" stroke="rgba(123, 123, 123, 1)" stroke-width="2"></path><path d="M598.1 582.56C733.59 569.27 794.9 296.34 1051.81 281.36 1308.71 266.38 1383.09 100.06 1505.51 96.56" stroke="rgba(123, 123, 123, 1)" stroke-width="2"></path><path d="M632.26 657.77C767.25 588.41 700.91 146.89 954.44 143.22 1207.97 139.55 1429.6 347.89 1598.79 350.42" stroke="rgba(123, 123, 123, 1)" stroke-width="2"></path></g><defs><mask id="SvgjsMask1017"><rect width="1440" height="560" fill="#ffffff"></rect></mask></defs></svg>