<svg xmlns="http://www.w3.org/2000/svg" version="1.1" xmlns:xlink="http://www.w3.org/1999/xlink" xmlns:svgjs="http://svgjs.dev/svgjs" width="1440" height="560" preserveAspectRatio="none" viewBox="0 0 1440 560"><g mask="url(&quot;#SvgjsMask1016&quot;)" fill="none"><path d="M-48.83 294.87C132.82 294.21 298.39 152.77 664.16 154.87 1029.93 156.97 1164.96 602.17 1377.15 622.4" stroke="rgba(123, 123, 123, 1)" stroke-width="2"></path><path d="M-180.77 313.66C-60.22 313.85 57.77 383.66 296.32 383.66 534.86 383.66 529.4 312.5 773.4 313.66 1017.4 314.82 1113.12 579.35 1250.49 588.99" stroke="rgba(123, 123, 123, 1)" stroke-width="2"></path><path d="M-78.53 402.73C75.8 398.51 200.67 171.45 494.76 173.13 788.85 174.81 881.85 633.52 1068.05 665.77" stroke="rgba(123, 123, 123, 1)" stroke-width="2"></path><path d="M-6.63 294.87C101.05 295.1 205.87 364.87 418.38 364.87 630.88 364.87 624.55 293.34 843.39 294.87 1062.23 296.4 1141.85 561.93 1268.4 574.04" stroke="rgba(123, 123, 123, 1)" stroke-width="2"></path><path d="M-89.39 148.08C54.43 153.36 208.1 366.55 436.05 383.28 664 400.01 613.12 596.22 698.77 611.37" stroke="rgba(123, 123, 123, 1)" stroke-width="2"></path></g><defs><mask id="SvgjsMask1016"><rect width="1440" height="560" fill="#ffffff"></rect></mask></defs></svg>