<svg xmlns="http://www.w3.org/2000/svg" version="1.1" xmlns:xlink="http://www.w3.org/1999/xlink" xmlns:svgjs="http://svgjs.dev/svgjs" width="1440" height="560" preserveAspectRatio="none" viewBox="0 0 1440 560"><g mask="url(&quot;#SvgjsMask1006&quot;)" fill="none"><path d="M1090.94-43.47C928.67-43.36 779.89 26.08 445.93 29.09 111.98 32.1-23.92 297.87-199.07 303.49" stroke="rgba(255, 91, 91, 1)" stroke-width="2"></path><path d="M654.1-87.37C507.29-28.35 490.53 411.05 279.33 422.68 68.14 434.31 2.76 306.45-95.43 305.08" stroke="rgba(255, 91, 91, 1)" stroke-width="2"></path><path d="M1064.89-33.51C941.07-27.97 844.58 181.51 618.38 181.99 392.19 182.47 395.13 111.99 171.88 111.99-51.38 111.99-161.64 181.78-274.63 181.99" stroke="rgba(255, 91, 91, 1)" stroke-width="2"></path><path d="M961.35-24.82C854.72-23 759.96 111.58 557.2 111.64 354.44 111.7 355.12 41.64 153.05 41.64-49.03 41.64-148.56 111.38-251.1 111.64" stroke="rgba(255, 91, 91, 1)" stroke-width="2"></path><path d="M1218.35-1.04C1091.69 10.08 1009.36 269.69 788.65 271.04 567.95 272.39 573.81 201.04 358.96 201.04 144.11 201.04 38.1 270.81-70.74 271.04" stroke="rgba(255, 91, 91, 1)" stroke-width="2"></path></g><defs><mask id="SvgjsMask1006"><rect width="1440" height="560" fill="#ffffff"></rect></mask></defs></svg>