<svg xmlns="http://www.w3.org/2000/svg" version="1.1" xmlns:xlink="http://www.w3.org/1999/xlink" xmlns:svgjs="http://svgjs.dev/svgjs" width="1440" height="560" preserveAspectRatio="none" viewBox="0 0 1440 560"><g mask="url(&quot;#SvgjsMask1005&quot;)" fill="none"><path d="M1666.71 118.12C1497.99 118.57 1253.82 236.06 1002.17 235.72 750.52 235.38 774.03-7.54 669.9-22.05" stroke="rgba(255, 91, 91, 1)" stroke-width="2"></path><path d="M1720.32 94.66C1610.74 99.1 1523.89 279.85 1322.46 279.46 1121.04 279.07 1049.66-14.16 924.61-31.93" stroke="rgba(255, 91, 91, 1)" stroke-width="2"></path><path d="M1650.71 360.28C1488.53 359.79 1351.12 249.32 1012.72 242.68 674.32 236.04 554.6-82.36 374.73-92.34" stroke="rgba(255, 91, 91, 1)" stroke-width="2"></path><path d="M1463.84 107.83C1318.17 111.59 1197.23 321.5 921.19 320.63 645.15 319.76 547.93-72.42 378.54-95.43" stroke="rgba(255, 91, 91, 1)" stroke-width="2"></path><path d="M1680.78 464.68C1520.35 463.04 1323.09 304.75 1062.95 291.08 802.82 277.41 859.52 12.15 754.04-11.6" stroke="rgba(255, 91, 91, 1)" stroke-width="2"></path></g><defs><mask id="SvgjsMask1005"><rect width="1440" height="560" fill="#ffffff"></rect></mask></defs></svg>