<svg xmlns="http://www.w3.org/2000/svg" version="1.1" xmlns:xlink="http://www.w3.org/1999/xlink" xmlns:svgjs="http://svgjs.dev/svgjs" width="1440" height="560" preserveAspectRatio="none" viewBox="0 0 1440 560"><g mask="url(&quot;#SvgjsMask1007&quot;)" fill="none"><path d="M-44.44 155.75C80.57 157.99 169.3 308.43 428.57 318.15 687.85 327.87 766.41 573.73 901.59 582.5" stroke="rgba(255, 91, 91, 1)" stroke-width="2"></path><path d="M-282.93 340.1C-126.35 339.31 87.69 202.01 328.82 205.7 569.96 209.39 512.98 585.75 634.7 637.63" stroke="rgba(255, 91, 91, 1)" stroke-width="2"></path><path d="M-265.41 393.05C-77.28 389.59 85.27 145.84 445.76 146.65 806.24 147.46 943.1 607.81 1156.92 629.96" stroke="rgba(255, 91, 91, 1)" stroke-width="2"></path><path d="M-251.71 464.79C-88.04 462.7 137.3 274.02 374.72 274.39 612.15 274.76 578.05 574.54 687.94 602.66" stroke="rgba(255, 91, 91, 1)" stroke-width="2"></path><path d="M-214.78 354.17C-63.27 352.33 69.52 179.35 365.9 180.57 662.28 181.79 769.75 572.23 946.58 592.43" stroke="rgba(255, 91, 91, 1)" stroke-width="2"></path></g><defs><mask id="SvgjsMask1007"><rect width="1440" height="560" fill="#ffffff"></rect></mask></defs></svg>