<svg xmlns="http://www.w3.org/2000/svg" version="1.1" xmlns:xlink="http://www.w3.org/1999/xlink" xmlns:svgjs="http://svgjs.dev/svgjs" width="1440" height="560" preserveAspectRatio="none" viewBox="0 0 1440 560"><g mask="url(&quot;#SvgjsMask1008&quot;)" fill="none"><path d="M743.96 578.77C885.13 534.33 927.53 130.16 1127.5 127.8 1327.47 125.44 1400.29 343.8 1511.04 351.8" stroke="rgba(255, 91, 91, 1)" stroke-width="2"></path><path d="M584.83 648.92C704.8 643.1 771.36 448.88 1014.86 434.68 1258.35 420.48 1321.27 196.81 1444.88 188.28" stroke="rgba(255, 91, 91, 1)" stroke-width="2"></path><path d="M681.92 603.7C817.15 530.4 747.51 81.58 999.85 76.93 1252.19 72.28 1469.38 270.72 1635.71 272.93" stroke="rgba(255, 91, 91, 1)" stroke-width="2"></path><path d="M274.11 634.46C435.3 593.01 481.65 161.5 733.01 152.18 984.37 142.86 962.46 222.18 1191.91 222.18 1421.36 222.18 1534.76 152.38 1650.81 152.18" stroke="rgba(255, 91, 91, 1)" stroke-width="2"></path><path d="M345.11 646.87C513.52 640.66 650.14 371.47 960.22 371.15 1270.3 370.83 1418.77 488.22 1575.33 488.75" stroke="rgba(255, 91, 91, 1)" stroke-width="2"></path></g><defs><mask id="SvgjsMask1008"><rect width="1440" height="560" fill="#ffffff"></rect></mask></defs></svg>