<svg id="visual" viewBox="0 0 900 600" width="900" height="600" xmlns="http://www.w3.org/2000/svg" xmlns:xlink="http://www.w3.org/1999/xlink" version="1.1"><rect x="0" y="0" width="900" height="600" fill="#f5f7fb"></rect><g fill="none" stroke="#c30f0f" stroke-width="9"><path d="M31.8 18.4L31.8 82.1L-31.8 82.1L-31.8 18.4L-87 -13.5L-55.2 -68.6L0 -36.8L55.2 -68.6L87 -13.5Z" transform="translate(338 376)"></path><path d="M15.9 9.2L15.9 41L-15.9 41L-15.9 9.2L-43.5 -6.7L-27.6 -34.3L0 -18.4L27.6 -34.3L43.5 -6.7Z" transform="translate(615 556)"></path><path d="M24 13.9L24 61.9L-24 61.9L-24 13.9L-65.6 -10.2L-41.6 -51.7L0 -27.7L41.6 -51.7L65.6 -10.2Z" transform="translate(12 597)"></path><path d="M22.7 13.1L22.7 58.4L-22.7 58.4L-22.7 13.1L-61.9 -9.6L-39.3 -48.8L0 -26.2L39.3 -48.8L61.9 -9.6Z" transform="translate(879 401)"></path><path d="M16.5 9.5L16.5 42.4L-16.5 42.4L-16.5 9.5L-45 -7L-28.5 -35.5L0 -19L28.5 -35.5L45 -7Z" transform="translate(127 218)"></path><path d="M29.7 17.1L29.7 76.5L-29.7 76.5L-29.7 17.1L-81.1 -12.5L-51.4 -64L0 -34.3L51.4 -64L81.1 -12.5Z" transform="translate(505 58)"></path><path d="M21.3 12.3L21.3 54.9L-21.3 54.9L-21.3 12.3L-58.2 -9L-36.9 -45.9L0 -24.6L36.9 -45.9L58.2 -9Z" transform="translate(789 125)"></path></g></svg>